<svg width="28.000000" height="28.000000" viewBox="0 0 28 28" fill="none" xmlns="http://www.w3.org/2000/svg" xmlns:xlink="http://www.w3.org/1999/xlink">
	<desc>
			Created with Pixso.
	</desc>
	<defs>
		<clipPath id="clip10_22921">
			<rect id="Outline / Arrows / Arrow Left" rx="0.000000" width="19.000000" height="19.000000" transform="translate(4.500000 4.500000)" fill="white" fill-opacity="0"/>
		</clipPath>
	</defs>
	<rect id="Arrow_btn" rx="13.500000" width="27.000000" height="27.000000" transform="translate(0.500000 0.500000)" fill="#FFFFFF" fill-opacity="1.000000"/>
	<g clip-path="url(#clip10_22921)">
		<path id="Vector" d="M12.77 8.55C13.01 8.8 13.01 9.19 12.77 9.44L8.84 13.37L20.66 13.37C21.01 13.37 21.29 13.65 21.29 14C21.29 14.34 21.01 14.62 20.66 14.62L8.84 14.62L12.77 18.55C13.01 18.8 13.01 19.19 12.77 19.44C12.53 19.68 12.13 19.68 11.89 19.44L6.89 14.44C6.64 14.19 6.64 13.8 6.89 13.55L11.89 8.55C12.13 8.31 12.53 8.31 12.77 8.55Z" fill="#6A0BFF" fill-opacity="1.000000" fill-rule="evenodd"/>
	</g>
	<rect id="Arrow_btn" rx="13.500000" width="27.000000" height="27.000000" transform="translate(0.500000 0.500000)" stroke="#6A0BFF" stroke-opacity="1.000000" stroke-width="1.000000"/>
</svg>
