<svg width="17.916992" height="17.916992" viewBox="0 0 17.917 17.917" fill="none" xmlns="http://www.w3.org/2000/svg" xmlns:xlink="http://www.w3.org/1999/xlink">
	<desc>
			Created with Pixso.
	</desc>
	<defs/>
	<path id="Vector" d="M8.54 1.25C4.51 1.25 1.25 4.51 1.25 8.54C1.25 12.56 4.51 15.83 8.54 15.83C12.56 15.83 15.83 12.56 15.83 8.54C15.83 4.51 12.56 1.25 8.54 1.25ZM0 8.54C0 3.82 3.82 0 8.54 0C13.25 0 17.08 3.82 17.08 8.54C17.08 10.67 16.3 12.62 15 14.12L17.73 16.84C17.97 17.09 17.97 17.48 17.73 17.73C17.48 17.97 17.09 17.97 16.84 17.73L14.12 15C12.62 16.3 10.67 17.08 8.54 17.08C3.82 17.08 0 13.25 0 8.54Z" fill="#A3A3A3" fill-opacity="1.000000" fill-rule="evenodd"/>
</svg>
