<svg width="96.911133" height="21.083984" viewBox="0 0 96.9111 21.084" fill="none" xmlns="http://www.w3.org/2000/svg" xmlns:xlink="http://www.w3.org/1999/xlink">
	<desc>
			Created with Pixso.
	</desc>
	<defs/>
	<path id="Yeahub" d="M15.72 0.91L20.45 0.91L13.24 13.56L13.24 19.86L8.78 19.86L8.78 13.56L1.57 0.91L6.31 0.91L11.01 9.52L15.72 0.91ZM61.46 7.52C60.5 6.63 59.26 6.19 57.74 6.19C56.19 6.19 54.98 6.65 54.09 7.57L54.09 0.91L49.74 0.91L49.74 19.86L54.09 19.86L54.09 12.66C54.09 11.83 54.29 11.2 54.69 10.77C55.11 10.33 55.66 10.12 56.35 10.12C57.04 10.12 57.58 10.33 57.98 10.74C58.38 11.14 58.58 11.74 58.58 12.55L58.58 19.86L62.93 19.86L62.93 11.23C62.93 9.64 62.44 8.4 61.46 7.52ZM94.06 8.17C92.77 6.85 91.2 6.19 89.35 6.19C87.76 6.19 86.46 6.67 85.46 7.63L85.46 0.91L81.11 0.91L81.11 19.86L85.46 19.86L85.46 18.67C86.48 19.65 87.78 20.13 89.38 20.13C91.25 20.13 92.82 19.48 94.09 18.16C95.36 16.84 95.99 15.18 95.99 13.18C95.99 11.14 95.35 9.47 94.06 8.17ZM21.06 18.24C22.41 19.52 24.13 20.16 26.2 20.16C27.68 20.16 28.98 19.82 30.09 19.13C31.21 18.45 31.95 17.44 32.32 16.1L28.54 15.1C28.43 15.6 28.15 16.01 27.72 16.32C27.28 16.61 26.77 16.75 26.17 16.75Q25.51 16.75 24.97 16.5Q24.64 16.35 24.35 16.1C23.86 15.67 23.54 15.03 23.39 14.18L32.78 14.18C32.83 13.64 32.86 13.19 32.86 12.83C32.86 10.84 32.22 9.24 30.93 8.03Q30.29 7.43 29.55 7.02Q28.03 6.19 26.06 6.19Q24.25 6.19 22.79 6.91Q21.83 7.37 21.03 8.14Q20.34 8.81 19.88 9.61L19.88 9.61Q19.01 11.15 19.01 13.18Q19.01 15.22 19.9 16.77L19.9 16.77Q20.36 17.57 21.06 18.24ZM47.32 16.4C47.47 16.4 47.68 16.35 47.95 16.26L47.95 19.92C47.57 20.06 47.03 20.13 46.34 20.13C44.6 20.13 43.42 19.65 42.81 18.67C41.87 19.65 40.51 20.13 38.75 20.13Q36.9 20.13 35.66 19.26Q35.51 19.16 35.38 19.05C34.53 18.33 34.1 17.34 34.1 16.07C34.1 14.9 34.49 13.95 35.27 13.23C36.05 12.51 37.1 12.08 38.43 11.96L42.32 11.61L42.32 11.34C42.32 10.81 42.14 10.4 41.77 10.09C41.41 9.77 40.95 9.6 40.39 9.6Q39.61 9.6 39.15 9.99Q38.71 10.35 38.56 11.07L34.67 10.52C34.91 9.01 35.58 7.91 36.69 7.22Q38.37 6.19 40.71 6.19Q43.49 6.19 45.07 7.52C46.14 8.38 46.67 9.62 46.67 11.23L46.67 15.67C46.67 16.16 46.89 16.4 47.32 16.4ZM74.22 6.46L78.58 6.46L78.58 19.86L74.22 19.86L74.22 18.75Q73.94 19.04 73.62 19.27L73.62 19.27Q72.41 20.13 70.58 20.13C69.13 20.13 67.89 19.67 66.88 18.75C65.88 17.82 65.38 16.51 65.38 14.83L65.38 6.46L69.74 6.46L69.74 13.88C69.74 14.66 69.93 15.24 70.33 15.64C70.73 16.02 71.28 16.21 71.97 16.21C72.66 16.21 73.2 15.99 73.6 15.56C74.01 15.13 74.22 14.49 74.22 13.66L74.22 6.46ZM28.7 11.47L23.53 11.47C23.97 10.24 24.82 9.63 26.09 9.63C26.79 9.63 27.37 9.82 27.83 10.2C28.3 10.56 28.59 10.98 28.7 11.47ZM90.6 15.5C90.02 16.08 89.32 16.37 88.48 16.37C87.61 16.37 86.89 16.08 86.31 15.5C85.74 14.91 85.46 14.13 85.46 13.18C85.46 12.2 85.74 11.43 86.31 10.85C86.89 10.25 87.61 9.95 88.48 9.95C89.33 9.95 90.04 10.25 90.6 10.85C91.18 11.43 91.47 12.2 91.47 13.18C91.47 14.13 91.18 14.91 90.6 15.5ZM42.32 14.61L42.32 14.31L39.76 14.61C39.33 14.67 38.98 14.81 38.73 15.04C38.47 15.26 38.35 15.52 38.35 15.83C38.35 16.19 38.5 16.47 38.81 16.67C39.14 16.87 39.54 16.96 40.03 16.94C40.69 16.9 41.23 16.69 41.66 16.29C42.1 15.89 42.32 15.33 42.32 14.61Z" fill="#303030" fill-opacity="1.000000" fill-rule="evenodd"/>
	<path id="Yeahub" d="M14.16 13.8L21.25 1.37L22.03 0L15.17 0L11.01 7.61L6.85 0L0 0L7.87 13.8L7.87 20.78L14.16 20.78L14.16 13.8ZM13.24 13.56L19.93 1.83L20.45 0.91L15.72 0.91L11.53 8.57L11.01 9.52L10.49 8.57L6.31 0.91L1.57 0.91L2.1 1.83L8.78 13.56L8.78 19.86L13.24 19.86L13.24 13.56ZM62.82 7.66Q62.5 7.22 62.08 6.84Q62.08 6.84 62.08 6.84Q62.08 6.84 62.08 6.84Q61.64 6.44 61.14 6.14Q59.7 5.28 57.74 5.28Q56.41 5.28 55.34 5.68Q55.17 5.75 55.01 5.82L55.01 0L48.82 0L48.82 15.01L47.66 15.39Q47.62 15.41 47.59 15.42L47.59 11.23Q47.59 9.83 47.11 8.73Q46.87 8.19 46.53 7.72Q46.16 7.22 45.66 6.82Q45.64 6.8 45.62 6.79Q43.79 5.28 40.71 5.28Q38.19 5.28 36.31 6.38Q36.26 6.41 36.2 6.44Q35.66 6.78 35.23 7.23Q34.86 7.61 34.57 8.08Q33.97 9.07 33.77 10.38L33.64 11.22Q33.5 10.47 33.23 9.79Q33 9.23 32.68 8.73Q32.22 7.99 31.56 7.37Q30.8 6.64 29.9 6.17Q28.22 5.28 26.06 5.28Q24.39 5.28 22.97 5.82Q22.66 5.95 22.36 6.09Q21.29 6.62 20.39 7.48Q19.63 8.22 19.12 9.1Q18.86 9.55 18.67 10.03Q18.1 11.46 18.1 13.18Q18.1 14.91 18.67 16.34Q18.87 16.83 19.13 17.28Q19.65 18.17 20.42 18.9L20.43 18.91Q21.2 19.64 22.11 20.12Q23.9 21.08 26.2 21.08Q28.4 21.08 30.13 20.16Q30.35 20.05 30.56 19.92Q31.41 19.4 32.01 18.68Q32.82 17.71 33.19 16.37Q33.24 17.33 33.58 18.13Q33.71 18.44 33.89 18.73Q34.25 19.3 34.8 19.76Q35.04 19.96 35.3 20.13Q36.73 21.05 38.75 21.05Q41.16 21.05 42.71 19.95Q43.18 20.36 43.8 20.62Q44.86 21.05 46.34 21.05Q47.55 21.05 48.27 20.78L48.82 20.57L48.82 20.78L55.01 20.78L55.01 12.66Q55.01 11.78 55.36 11.4Q55.46 11.29 55.59 11.21Q55.66 11.17 55.75 11.13Q56 11.03 56.35 11.03Q56.95 11.03 57.28 11.33Q57.3 11.35 57.32 11.37L57.33 11.38L57.33 11.39Q57.66 11.72 57.66 12.55L57.66 20.78L63.85 20.78L63.85 11.23Q63.85 9.86 63.42 8.77Q63.18 8.17 62.82 7.66ZM54.69 10.77C55.11 10.33 55.66 10.12 56.35 10.12C57.04 10.12 57.58 10.33 57.98 10.74C58.38 11.14 58.58 11.74 58.58 12.55L58.58 19.86L62.93 19.86L62.93 11.23C62.93 9.64 62.44 8.4 61.46 7.52C60.5 6.63 59.26 6.19 57.74 6.19C56.67 6.19 55.76 6.41 55.01 6.85C54.67 7.05 54.37 7.29 54.09 7.57L54.09 0.91L49.74 0.91L49.74 19.86L54.09 19.86L54.09 12.66C54.09 11.83 54.29 11.2 54.69 10.77ZM42.1 19.26C42.36 19.09 42.59 18.9 42.81 18.67C42.97 18.93 43.18 19.16 43.43 19.35C44.1 19.87 45.07 20.13 46.34 20.13C47.03 20.13 47.57 20.06 47.95 19.92L47.95 16.26C47.68 16.35 47.47 16.4 47.32 16.4C47.21 16.4 47.12 16.38 47.03 16.35C46.79 16.26 46.67 16.03 46.67 15.67L46.67 11.23C46.67 9.62 46.14 8.38 45.07 7.52Q43.49 6.19 40.71 6.19Q38.37 6.19 36.69 7.22C35.81 7.76 35.21 8.56 34.88 9.63C34.79 9.91 34.72 10.21 34.67 10.52L35.58 10.65L38.39 11.04L38.56 11.07Q38.57 11.04 38.57 11.03Q38.72 10.34 39.15 9.99Q39.61 9.6 40.39 9.6C40.95 9.6 41.41 9.77 41.77 10.09C41.97 10.26 42.12 10.46 42.21 10.7C42.22 10.73 42.23 10.77 42.25 10.81C42.29 10.97 42.32 11.14 42.32 11.34L42.32 11.61L39.33 11.88L38.43 11.96C38.41 11.96 38.39 11.96 38.37 11.96C37.08 12.1 36.04 12.52 35.27 13.23C34.49 13.95 34.1 14.9 34.1 16.07C34.1 17.34 34.53 18.33 35.38 19.05Q35.51 19.16 35.66 19.26Q36.9 20.13 38.75 20.13C40.11 20.13 41.23 19.84 42.1 19.26ZM36.03 11.64L33.65 11.31Q33.78 12.03 33.78 12.83Q33.78 13.22 33.74 13.73Q33.79 13.63 33.85 13.54Q34.17 13 34.65 12.56Q34.75 12.47 34.85 12.38Q35.38 11.94 36.03 11.64ZM33.27 15.1L32.1 15.1L33.23 15.39Q33.24 15.24 33.27 15.1ZM27.8 14.18L32.78 14.18C32.83 13.64 32.86 13.19 32.86 12.83C32.86 10.84 32.22 9.24 30.93 8.03Q30.29 7.43 29.55 7.02Q28.03 6.19 26.06 6.19Q24.25 6.19 22.79 6.91Q21.83 7.37 21.03 8.14Q20.34 8.81 19.88 9.61L19.88 9.61Q19.01 11.15 19.01 13.18Q19.01 15.22 19.9 16.77L19.9 16.77Q20.36 17.57 21.06 18.24C22.41 19.52 24.13 20.16 26.2 20.16C27.68 20.16 28.98 19.82 30.09 19.13C30.95 18.6 31.59 17.88 32.01 16.97C32.13 16.7 32.23 16.41 32.32 16.1L31.43 15.87L29.42 15.33L28.54 15.1C28.52 15.17 28.5 15.23 28.48 15.29C28.35 15.71 28.1 16.05 27.72 16.32C27.28 16.61 26.77 16.75 26.17 16.75Q25.51 16.75 24.97 16.5Q24.64 16.35 24.35 16.1C24.05 15.84 23.82 15.51 23.65 15.1C23.54 14.82 23.45 14.52 23.39 14.18L27.8 14.18ZM24.68 15.1L27.58 15.1Q27.56 15.15 27.53 15.21Q27.41 15.41 27.2 15.56Q26.78 15.83 26.17 15.83Q25.64 15.83 25.24 15.61Q25.09 15.53 24.95 15.41Q24.8 15.28 24.68 15.1ZM39.56 10.94L41.18 10.79L41.17 10.78L41.16 10.77Q41.15 10.76 41.14 10.75Q40.86 10.52 40.39 10.52Q39.95 10.52 39.74 10.68Q39.63 10.77 39.56 10.94ZM94.71 7.53Q94.71 7.53 94.71 7.52Q93.69 6.48 92.46 5.92Q92.36 5.88 92.27 5.84Q92.21 5.82 92.15 5.79Q90.85 5.28 89.35 5.28Q87.68 5.28 86.38 5.89L86.38 0L80.19 0L80.19 20.78L86.38 20.78L86.38 20.42Q87.7 21.05 89.38 21.05Q90.97 21.05 92.31 20.49Q92.47 20.42 92.63 20.34Q93.79 19.79 94.75 18.79Q95.52 17.99 96.02 17.04Q96.91 15.34 96.91 13.18Q96.91 11.48 96.36 10.07Q96.15 9.51 95.86 9.01Q95.39 8.21 94.71 7.53ZM85.46 19.86L85.46 19.86L85.46 18.67C85.75 18.94 86.05 19.18 86.38 19.37C87.23 19.88 88.23 20.13 89.38 20.13C91.25 20.13 92.82 19.48 94.09 18.16C95.36 16.84 95.99 15.18 95.99 13.18C95.99 11.14 95.35 9.47 94.06 8.17C92.77 6.85 91.2 6.19 89.35 6.19C88.21 6.19 87.22 6.44 86.38 6.93C86.05 7.12 85.75 7.36 85.46 7.63L85.46 0.91L81.11 0.91L81.11 19.86L85.46 19.86ZM79.49 20.78L79.49 5.55L73.31 5.55L73.31 13.66Q73.31 14.54 72.94 14.92L72.93 14.93L72.92 14.94Q72.84 15.03 72.73 15.1Q72.65 15.16 72.55 15.2Q72.31 15.29 71.97 15.29Q71.31 15.29 70.97 14.98Q70.65 14.66 70.65 13.88L70.65 5.55L64.47 5.55L64.47 14.83Q64.47 16.26 64.9 17.4Q65.14 18.01 65.5 18.54Q65.83 19.02 66.26 19.43Q66.99 20.09 67.84 20.48Q69.08 21.05 70.58 21.05Q71.9 21.05 72.97 20.65Q73.14 20.58 73.31 20.51L73.31 20.78L79.49 20.78ZM73.31 19.48Q72.18 20.13 70.58 20.13C69.13 20.13 67.89 19.67 66.88 18.75C65.88 17.82 65.38 16.51 65.38 14.83L65.38 6.46L69.74 6.46L69.74 13.88C69.74 14.66 69.93 15.24 70.33 15.64C70.73 16.02 71.28 16.21 71.97 16.21C72.66 16.21 73.2 15.99 73.6 15.56C74.01 15.13 74.22 14.49 74.22 13.66L74.22 6.46L78.58 6.46L78.58 19.86L74.22 19.86L74.22 18.75Q73.94 19.04 73.62 19.27L73.62 19.27Q73.47 19.38 73.31 19.48ZM27.83 10.2C27.37 9.82 26.79 9.63 26.09 9.63C25.19 9.63 24.5 9.94 24.02 10.55C23.82 10.81 23.66 11.11 23.53 11.47L28.7 11.47C28.62 11.14 28.46 10.83 28.22 10.55C28.1 10.43 27.98 10.31 27.83 10.2ZM26.3 10.55Q26.2 10.55 26.09 10.55Q25.98 10.55 25.88 10.55L26.3 10.55ZM88.48 16.37C89.32 16.37 90.02 16.08 90.6 15.5C91.18 14.91 91.47 14.13 91.47 13.18C91.47 12.2 91.18 11.43 90.6 10.85C90.04 10.25 89.33 9.95 88.48 9.95C87.61 9.95 86.89 10.25 86.31 10.85C85.74 11.43 85.46 12.2 85.46 13.18C85.46 14.13 85.74 14.91 86.31 15.5C86.89 16.08 87.61 16.37 88.48 16.37ZM86.96 14.87Q87.24 15.13 87.56 15.28Q87.59 15.29 87.62 15.3Q88 15.46 88.48 15.46Q88.93 15.46 89.29 15.31Q89.65 15.16 89.95 14.86Q90.06 14.75 90.14 14.63Q90.56 14.05 90.56 13.18Q90.56 12.23 90.09 11.65Q90.03 11.57 89.96 11.5L89.95 11.49L89.94 11.48Q89.65 11.17 89.3 11.02Q88.94 10.87 88.48 10.87Q88.01 10.87 87.63 11.03L87.63 11.03Q87.26 11.18 86.96 11.49Q86.92 11.54 86.87 11.59Q86.38 12.17 86.38 13.18Q86.38 14.1 86.82 14.7Q86.89 14.79 86.96 14.87ZM38.73 15.04C38.47 15.26 38.35 15.52 38.35 15.83C38.35 16.19 38.5 16.47 38.81 16.67C39.14 16.87 39.54 16.96 40.03 16.94C40.69 16.9 41.23 16.69 41.66 16.29C41.96 16.02 42.16 15.67 42.25 15.24C42.3 15.05 42.32 14.84 42.32 14.61L42.32 14.31L41.4 14.42L39.76 14.61C39.33 14.67 38.98 14.81 38.73 15.04ZM41.24 15.36L39.87 15.52Q39.51 15.57 39.35 15.72L39.34 15.73L39.32 15.74Q39.28 15.78 39.27 15.8Q39.26 15.81 39.26 15.83Q39.26 15.85 39.27 15.87Q39.28 15.88 39.3 15.89Q39.55 16.04 40 16.02Q40.5 16 40.86 15.76Q40.96 15.69 41.05 15.61Q41.06 15.6 41.08 15.59Q41.17 15.49 41.24 15.36Z" fill="#FFFFFF" fill-opacity="1.000000" fill-rule="evenodd"/>
</svg>
