<svg width="21.083984" height="21.498047" viewBox="0 0 21.084 21.498" fill="none" xmlns="http://www.w3.org/2000/svg" xmlns:xlink="http://www.w3.org/1999/xlink">
	<desc>
			Created with Pixso.
	</desc>
	<defs/>
	<path id="Vector" d="M15.14 0.77L15.21 0.78C16.3 1.08 17.18 1.31 17.86 1.56C18.56 1.81 19.13 2.1 19.6 2.54C20.29 3.19 20.77 4.02 20.98 4.93C21.13 5.56 21.09 6.2 20.96 6.93C20.84 7.65 20.6 8.52 20.31 9.62L19.77 11.62C19.48 12.72 19.24 13.59 19 14.28C18.74 14.98 18.45 15.55 18.01 16.02C17.39 16.68 16.59 17.15 15.71 17.38C15.45 17.97 15.08 18.5 14.6 18.94C14.13 19.39 13.56 19.67 12.86 19.93C12.18 20.18 11.3 20.41 10.21 20.7L10.14 20.72C9.04 21.02 8.17 21.25 7.45 21.38C6.72 21.51 6.08 21.54 5.45 21.4C4.53 21.18 3.7 20.7 3.06 20.02C2.62 19.55 2.33 18.98 2.08 18.28C1.83 17.59 1.6 16.72 1.3 15.62L0.77 13.62C0.47 12.52 0.24 11.65 0.11 10.93C-0.02 10.2 -0.06 9.56 0.09 8.93C0.3 8.02 0.78 7.19 1.47 6.54C1.94 6.1 2.51 5.81 3.21 5.56C3.9 5.31 4.77 5.08 5.87 4.78L5.9 4.78C6.17 4.7 6.42 4.64 6.65 4.57C7.04 3.18 7.39 2.19 8.06 1.47C8.7 0.78 9.53 0.3 10.45 0.09C11.08 -0.06 11.72 -0.02 12.45 0.11C13.17 0.24 14.04 0.47 15.14 0.77ZM6.2 6.25C5.11 6.54 4.32 6.75 3.72 6.97C3.11 7.19 2.75 7.39 2.5 7.64C2.03 8.08 1.7 8.65 1.55 9.27C1.47 9.62 1.47 10.03 1.59 10.67C1.7 11.32 1.92 12.13 2.22 13.27L2.74 15.2C3.05 16.34 3.26 17.15 3.49 17.77C3.71 18.37 3.91 18.73 4.16 18.99C4.6 19.46 5.16 19.79 5.79 19.94C6.14 20.02 6.55 20.02 7.19 19.9C7.83 19.79 8.64 19.57 9.78 19.26C10.92 18.96 11.73 18.74 12.35 18.52C12.96 18.3 13.32 18.09 13.58 17.85C13.72 17.72 13.84 17.58 13.96 17.43C13.78 17.41 13.59 17.37 13.4 17.34C12.73 17.2 11.92 16.99 10.93 16.72L10.87 16.7C9.77 16.41 8.9 16.18 8.21 15.93C7.51 15.68 6.94 15.39 6.47 14.94C5.78 14.3 5.3 13.47 5.09 12.56C4.94 11.93 4.98 11.29 5.11 10.55C5.24 9.84 5.47 8.97 5.77 7.87L6.2 6.25ZM12.19 1.59C11.55 1.47 11.14 1.47 10.79 1.55C10.16 1.7 9.6 2.03 9.16 2.5C8.72 2.96 8.45 3.68 7.98 5.39C7.91 5.67 7.83 5.97 7.74 6.29L7.22 8.22C6.92 9.36 6.7 10.17 6.59 10.82C6.47 11.46 6.47 11.87 6.55 12.22C6.7 12.84 7.03 13.41 7.5 13.85C7.75 14.09 8.11 14.3 8.72 14.52C9.34 14.74 10.15 14.96 11.29 15.26C12.32 15.54 13.08 15.74 13.69 15.87C14.31 15.99 14.73 16.02 15.07 15.98C15.14 15.97 15.21 15.95 15.28 15.94C15.91 15.79 16.48 15.46 16.92 14.99C17.16 14.73 17.37 14.37 17.59 13.77C17.81 13.15 18.03 12.34 18.33 11.2L18.85 9.27C19.16 8.13 19.37 7.32 19.49 6.67C19.6 6.03 19.6 5.62 19.52 5.27C19.38 4.65 19.05 4.08 18.58 3.64C18.32 3.39 17.96 3.19 17.35 2.97C16.73 2.75 15.92 2.53 14.78 2.22C13.64 1.92 12.83 1.7 12.19 1.59Z" fill="#5E5E5E" fill-opacity="1.000000" fill-rule="evenodd"/>
</svg>
