<svg width="19.500000" height="21.500000" viewBox="0 0 19.5 21.5" fill="none" xmlns="http://www.w3.org/2000/svg" xmlns:xlink="http://www.w3.org/1999/xlink">
	<desc>
			Created with Pixso.
	</desc>
	<defs/>
	<path id="Vector" d="M8.69 0L10.8 0C12.64 0 14.09 0 15.23 0.15C16.41 0.31 17.36 0.64 18.1 1.39C18.85 2.13 19.18 3.08 19.34 4.26C19.5 5.4 19.5 6.85 19.5 8.69L19.5 12.8C19.5 14.64 19.5 16.09 19.34 17.23C19.18 18.41 18.85 19.36 18.1 20.1C17.36 20.85 16.41 21.18 15.23 21.34C14.09 21.5 12.64 21.5 10.8 21.5L8.69 21.5C6.85 21.5 5.4 21.5 4.26 21.34C3.08 21.18 2.13 20.85 1.39 20.1C0.64 19.36 0.31 18.41 0.15 17.23C0 16.09 0 14.64 0 12.8L0 8.69C0 6.85 0 5.4 0.15 4.26C0.31 3.08 0.64 2.13 1.39 1.39C2.13 0.64 3.08 0.31 4.26 0.15C5.4 0 6.85 0 8.69 0ZM4.46 1.63C3.45 1.77 2.87 2.02 2.45 2.45C2.02 2.87 1.77 3.45 1.63 4.46C1.5 5.48 1.5 6.84 1.5 8.75L1.5 12.75C1.5 14.65 1.5 16.01 1.63 17.03C1.77 18.04 2.02 18.62 2.45 19.04C2.87 19.47 3.45 19.72 4.46 19.86C5.48 19.99 6.84 20 8.75 20L10.75 20C12.65 20 14.01 19.99 15.03 19.86C16.04 19.72 16.62 19.47 17.04 19.04C17.47 18.62 17.72 18.04 17.86 17.03C17.99 16.01 18 14.65 18 12.75L18 8.75C18 6.84 17.99 5.48 17.86 4.46C17.72 3.45 17.47 2.87 17.04 2.45C16.62 2.02 16.04 1.77 15.03 1.63C14.01 1.5 12.65 1.5 10.75 1.5L8.75 1.5C6.84 1.5 5.48 1.5 4.46 1.63ZM5 8.75C5 8.33 5.33 8 5.75 8L13.75 8C14.16 8 14.5 8.33 14.5 8.75C14.5 9.16 14.16 9.5 13.75 9.5L5.75 9.5C5.33 9.5 5 9.16 5 8.75ZM5 12.75C5 12.33 5.33 12 5.75 12L10.75 12C11.16 12 11.5 12.33 11.5 12.75C11.5 13.16 11.16 13.5 10.75 13.5L5.75 13.5C5.33 13.5 5 13.16 5 12.75Z" fill="#474747" fill-opacity="1.000000" fill-rule="evenodd"/>
</svg>
