<svg width="21.500000" height="21.500000" viewBox="0 0 21.5 21.5" fill="none" xmlns="http://www.w3.org/2000/svg" xmlns:xlink="http://www.w3.org/1999/xlink">
	<desc>
			Created with Pixso.
	</desc>
	<defs/>
	<path id="Vector" d="M10.69 0L10.8 0C13.11 0 14.92 0 16.33 0.18C17.78 0.38 18.92 0.78 19.81 1.68C20.71 2.57 21.11 3.71 21.31 5.16C21.5 6.57 21.5 8.38 21.5 10.69L21.5 10.8C21.5 13.11 21.5 14.92 21.31 16.33C21.11 17.78 20.71 18.92 19.81 19.81C18.92 20.71 17.78 21.11 16.33 21.31C14.92 21.5 13.11 21.5 10.8 21.5L10.69 21.5C8.38 21.5 6.57 21.5 5.16 21.31C3.71 21.11 2.57 20.71 1.68 19.81C0.78 18.92 0.38 17.78 0.18 16.33C0 14.92 0 13.11 0 10.8L0 10.69C0 8.38 0 6.57 0.18 5.16C0.38 3.71 0.78 2.57 1.68 1.68C2.57 0.78 3.71 0.38 5.16 0.18C6.57 0 8.38 0 10.69 0ZM5.36 1.67C4.08 1.84 3.31 2.17 2.74 2.74C2.17 3.31 1.84 4.08 1.67 5.36C1.5 6.66 1.5 8.37 1.5 10.75C1.5 13.12 1.5 14.83 1.67 16.13C1.84 17.41 2.17 18.18 2.74 18.75C3.31 19.32 4.08 19.65 5.36 19.82C6.66 19.99 8.37 20 10.75 20C13.12 20 14.83 19.99 16.13 19.82C17.41 19.65 18.18 19.32 18.75 18.75C19.32 18.18 19.65 17.41 19.82 16.13C19.99 14.83 20 13.12 20 10.75C20 8.37 19.99 6.66 19.82 5.36C19.65 4.08 19.32 3.31 18.75 2.74C18.18 2.17 17.41 1.84 16.13 1.67C14.83 1.5 13.12 1.5 10.75 1.5C8.37 1.5 6.66 1.5 5.36 1.67ZM7.37 5.08C8 5.21 8.8 5.51 9.77 5.87L13.29 7.16C13.75 7.33 14.18 7.49 14.5 7.66C14.83 7.85 15.22 8.14 15.33 8.66C15.45 9.18 15.22 9.61 14.99 9.92C14.78 10.21 14.46 10.53 14.1 10.88L13.84 11.14L15.79 13.09C15.9 13.2 16.02 13.31 16.1 13.42C16.2 13.53 16.31 13.66 16.38 13.84C16.53 14.21 16.53 14.63 16.38 15.01C16.31 15.19 16.2 15.32 16.1 15.43C16.02 15.53 15.9 15.65 15.79 15.76L15.76 15.79C15.65 15.9 15.53 16.02 15.43 16.1C15.32 16.2 15.19 16.31 15.01 16.38C14.63 16.53 14.21 16.53 13.84 16.38C13.66 16.31 13.53 16.2 13.42 16.1C13.31 16.02 13.2 15.9 13.09 15.79L11.14 13.84L10.88 14.1C10.53 14.46 10.21 14.78 9.92 14.99C9.61 15.22 9.18 15.45 8.66 15.33C8.14 15.22 7.85 14.83 7.66 14.5C7.49 14.18 7.33 13.75 7.16 13.29L5.87 9.77C5.51 8.8 5.21 8 5.08 7.37C4.95 6.74 4.91 6.01 5.46 5.46C6.01 4.91 6.74 4.95 7.37 5.08ZM6.52 6.52C6.52 6.52 6.51 6.53 6.5 6.58C6.49 6.66 6.49 6.81 6.55 7.06C6.65 7.57 6.91 8.27 7.29 9.31L8.55 12.72C8.75 13.25 8.87 13.57 8.98 13.78C8.98 13.79 8.99 13.8 9 13.81C9.01 13.8 9.02 13.79 9.03 13.79C9.22 13.65 9.46 13.41 9.86 13L10.61 12.25C10.91 11.96 11.38 11.96 11.67 12.25L14.13 14.71C14.27 14.85 14.34 14.92 14.4 14.97C14.41 14.98 14.42 14.99 14.42 14.99C14.43 14.99 14.43 14.99 14.43 14.99C14.44 14.98 14.44 14.98 14.45 14.97C14.5 14.92 14.58 14.85 14.71 14.71C14.85 14.58 14.92 14.5 14.97 14.45C14.98 14.44 14.99 14.43 14.99 14.42C14.99 14.42 14.98 14.41 14.97 14.4C14.92 14.34 14.85 14.27 14.71 14.13L12.25 11.67C11.96 11.38 11.96 10.91 12.25 10.61L13 9.86C13.41 9.46 13.65 9.22 13.79 9.03C13.79 9.02 13.8 9.01 13.81 9C13.8 8.99 13.79 8.98 13.78 8.98C13.57 8.87 13.25 8.75 12.72 8.55L9.31 7.29C8.27 6.91 7.57 6.65 7.06 6.55C6.81 6.49 6.66 6.49 6.58 6.5C6.53 6.51 6.52 6.52 6.52 6.52Z" fill="#474747" fill-opacity="1.000000" fill-rule="evenodd"/>
</svg>
