<svg width="21.500000" height="21.500000" viewBox="0 0 21.5 21.5" fill="none" xmlns="http://www.w3.org/2000/svg" xmlns:xlink="http://www.w3.org/1999/xlink">
	<desc>
			Created with Pixso.
	</desc>
	<defs/>
	<path id="Vector" d="M10.75 0C4.8125 0 0 4.8125 0 10.75C0 16.6875 4.8125 21.5 10.75 21.5C16.6875 21.5 21.5 16.6875 21.5 10.75C21.5 4.8125 16.6875 0 10.75 0ZM1.5 10.75C1.5 5.6416 5.6416 1.5 10.75 1.5C15.8584 1.5 20 5.6416 20 10.75C20 15.8584 15.8584 20 10.75 20C5.6416 20 1.5 15.8584 1.5 10.75ZM10.75 6.5C10.1289 6.5 9.625 7.00391 9.625 7.625C9.625 8.03906 9.28906 8.375 8.875 8.375C8.46094 8.375 8.125 8.03906 8.125 7.625C8.125 6.1748 9.2998 5 10.75 5C12.2002 5 13.375 6.1748 13.375 7.625C13.375 8.58789 12.8555 9.42969 12.085 9.88574C11.8887 10.002 11.7266 10.1289 11.6201 10.2539C11.5176 10.375 11.5 10.4531 11.5 10.5L11.5 11.75C11.5 12.1641 11.1641 12.5 10.75 12.5C10.3359 12.5 10 12.1641 10 11.75L10 10.5C10 9.99414 10.2217 9.58398 10.4766 9.2832C10.7285 8.98633 11.043 8.75879 11.3213 8.59473C11.6543 8.39746 11.875 8.03613 11.875 7.625C11.875 7.00391 11.3711 6.5 10.75 6.5ZM10.75 15.75C11.3027 15.75 11.75 15.3027 11.75 14.75C11.75 14.1973 11.3027 13.75 10.75 13.75C10.1973 13.75 9.75 14.1973 9.75 14.75C9.75 15.3027 10.1973 15.75 10.75 15.75Z" clip-rule="evenodd" fill="#6A0BFF" fill-opacity="1.000000" fill-rule="evenodd"/>
</svg>
