<svg width="19.500000" height="18.866211" viewBox="0 0 19.5 18.8662" fill="none" xmlns="http://www.w3.org/2000/svg" xmlns:xlink="http://www.w3.org/1999/xlink">
	<desc>
			Created with Pixso.
	</desc>
	<defs/>
	<path id="Vector" d="M15.61 0.59C15.66 0.61 15.71 0.63 15.77 0.64L16.97 1.04C17.43 1.2 17.84 1.33 18.16 1.48C18.51 1.65 18.83 1.86 19.07 2.19C19.31 2.53 19.41 2.9 19.45 3.28C19.5 3.63 19.5 4.06 19.5 4.55L19.5 12.76C19.5 13.46 19.5 14.05 19.44 14.52C19.38 15 19.26 15.48 18.91 15.86C18.7 16.09 18.44 16.28 18.16 16.4C17.68 16.62 17.19 16.58 16.71 16.48C16.25 16.39 15.69 16.2 15.03 15.98L14.99 15.97C13.87 15.59 13.48 15.48 13.11 15.49C12.96 15.49 12.82 15.51 12.67 15.55C12.31 15.63 11.97 15.85 10.99 16.5L9.6 17.42C9.56 17.46 9.51 17.49 9.46 17.52C8.4 18.23 7.66 18.72 6.8 18.83C5.94 18.95 5.09 18.67 3.88 18.26C3.83 18.25 3.78 18.23 3.72 18.21L2.52 17.81C2.06 17.66 1.65 17.52 1.33 17.37C0.98 17.21 0.66 17 0.42 16.66C0.18 16.32 0.08 15.96 0.04 15.57C0 15.22 0 14.79 0 14.3L0 6.09C0 5.39 0 4.8 0.05 4.34C0.11 3.86 0.23 3.38 0.58 2.99C0.79 2.76 1.05 2.58 1.33 2.45C1.81 2.24 2.3 2.27 2.78 2.37C3.24 2.47 3.8 2.65 4.46 2.87L4.5 2.89C5.62 3.26 6.01 3.38 6.38 3.37C6.53 3.36 6.67 3.34 6.82 3.31C7.18 3.22 7.52 3.01 8.5 2.35L9.89 1.43C9.93 1.4 9.98 1.37 10.03 1.34C11.09 0.63 11.83 0.14 12.69 0.02C13.55 -0.09 14.4 0.19 15.61 0.59ZM13.5 1.53L13.5 14.01C14.03 14.07 14.59 14.25 15.34 14.5C15.38 14.52 15.42 14.53 15.46 14.54C16.18 14.78 16.66 14.94 17.02 15.02C17.37 15.09 17.5 15.06 17.55 15.03C17.64 14.99 17.73 14.93 17.8 14.85C17.84 14.81 17.91 14.7 17.95 14.34C17.99 13.97 18 13.47 18 12.72L18 4.59C18 4.05 17.99 3.71 17.96 3.45C17.94 3.21 17.89 3.12 17.85 3.07C17.81 3.02 17.74 2.95 17.53 2.84C17.29 2.74 16.97 2.63 16.46 2.46L15.29 2.07C14.41 1.77 13.88 1.6 13.5 1.53ZM12 14.19L12 1.86C11.68 2.04 11.29 2.3 10.72 2.68L9.34 3.6C9.3 3.63 9.26 3.65 9.23 3.67C8.54 4.13 8.03 4.48 7.5 4.67L7.5 17C7.81 16.81 8.2 16.55 8.77 16.18L10.15 15.25C10.19 15.23 10.23 15.21 10.26 15.18C10.95 14.72 11.46 14.38 12 14.19ZM6 17.32L6 4.85C5.46 4.79 4.9 4.6 4.15 4.35C4.11 4.34 4.07 4.33 4.03 4.31C3.31 4.07 2.83 3.92 2.47 3.84C2.12 3.77 1.99 3.8 1.94 3.82C1.85 3.87 1.76 3.93 1.69 4C1.65 4.05 1.58 4.15 1.54 4.51C1.5 4.88 1.5 5.38 1.5 6.14L1.5 14.27C1.5 14.8 1.5 15.15 1.53 15.4C1.55 15.64 1.6 15.73 1.64 15.79C1.68 15.84 1.75 15.91 1.96 16.01C2.2 16.12 2.52 16.23 3.03 16.4L4.2 16.79C5.08 17.08 5.61 17.25 6 17.32Z" fill="#474747" fill-opacity="1.000000" fill-rule="evenodd"/>
</svg>
