<svg width="21.500000" height="21.962891" viewBox="0 0 21.5 21.9629" fill="none" xmlns="http://www.w3.org/2000/svg" xmlns:xlink="http://www.w3.org/1999/xlink">
	<desc>
			Created with Pixso.
	</desc>
	<defs/>
	<path id="Vector" d="M6.69 0L14.8 0C16.17 0 17.27 0 18.14 0.11C19.04 0.23 19.79 0.49 20.4 1.09C21 1.7 21.26 2.45 21.38 3.35C21.5 4.22 21.5 5.32 21.5 6.69L21.5 10.8C21.5 12.17 21.5 13.27 21.38 14.14C21.26 15.04 21 15.79 20.4 16.4C19.9 16.89 19.29 17.16 18.58 17.3C17.89 17.45 17.06 17.48 16.07 17.49L16.07 17.49L15.84 17.49C15.75 17.8 15.59 18.08 15.37 18.34C15.24 18.5 15.16 18.69 15.14 18.89C15.05 20.09 14.09 21.05 12.89 21.14C12.69 21.16 12.5 21.24 12.34 21.37C11.42 22.15 10.07 22.15 9.15 21.37C9 21.24 8.8 21.16 8.6 21.14C7.4 21.05 6.44 20.09 6.35 18.89C6.33 18.69 6.25 18.5 6.12 18.34C5.9 18.08 5.75 17.8 5.65 17.49C4.61 17.49 3.74 17.46 3.02 17.33C2.26 17.19 1.62 16.92 1.09 16.4C0.49 15.79 0.23 15.04 0.11 14.14C0 13.27 0 12.17 0 10.8L0 6.69C0 5.32 0 4.22 0.11 3.35C0.23 2.45 0.49 1.7 1.09 1.09C1.7 0.49 2.45 0.23 3.35 0.11C4.22 0 5.32 0 6.69 0ZM5.65 15.99C5.75 15.69 5.9 15.4 6.12 15.15C6.25 15 6.33 14.8 6.35 14.6C6.44 13.4 7.4 12.44 8.6 12.35C8.8 12.33 9 12.25 9.15 12.12C10.07 11.34 11.42 11.34 12.34 12.12C12.5 12.25 12.69 12.33 12.89 12.35C14.09 12.44 15.05 13.4 15.14 14.6C15.16 14.8 15.24 15 15.37 15.15C15.59 15.4 15.74 15.69 15.84 15.99L16.06 15.99C17.04 15.98 17.75 15.94 18.28 15.83C18.8 15.73 19.1 15.57 19.34 15.34C19.61 15.06 19.79 14.67 19.89 13.94C19.99 13.18 20 12.18 20 10.75L20 6.75C20 5.31 19.99 4.31 19.89 3.55C19.79 2.82 19.61 2.43 19.34 2.15C19.06 1.88 18.67 1.7 17.94 1.6C17.18 1.5 16.18 1.5 14.75 1.5L6.75 1.5C5.31 1.5 4.31 1.5 3.55 1.6C2.82 1.7 2.43 1.88 2.15 2.15C1.88 2.43 1.7 2.82 1.6 3.55C1.5 4.31 1.5 5.31 1.5 6.75L1.5 10.75C1.5 12.18 1.5 13.18 1.6 13.94C1.7 14.67 1.88 15.06 2.15 15.34C2.4 15.58 2.73 15.75 3.29 15.85C3.86 15.96 4.61 15.99 5.65 15.99ZM7 4.75C7 4.33 7.33 4 7.75 4L13.75 4C14.16 4 14.5 4.33 14.5 4.75C14.5 5.16 14.16 5.5 13.75 5.5L7.75 5.5C7.33 5.5 7 5.16 7 4.75ZM5 8.25C5 7.83 5.33 7.5 5.75 7.5L15.75 7.5C16.16 7.5 16.5 7.83 16.5 8.25C16.5 8.66 16.16 9 15.75 9L5.75 9C5.33 9 5 8.66 5 8.25ZM11.37 13.26C11.01 12.96 10.48 12.96 10.12 13.26C9.73 13.6 9.24 13.8 8.72 13.84C8.25 13.88 7.88 14.25 7.84 14.72C7.8 15.24 7.6 15.73 7.26 16.12C6.95 16.48 6.95 17.01 7.26 17.37C7.6 17.76 7.8 18.25 7.84 18.77C7.88 19.24 8.25 19.61 8.72 19.65C9.24 19.69 9.73 19.89 10.12 20.23C10.48 20.54 11.01 20.54 11.37 20.23C11.76 19.89 12.25 19.69 12.77 19.65C13.24 19.61 13.61 19.24 13.65 18.77C13.69 18.25 13.89 17.76 14.23 17.37C14.54 17.01 14.54 16.48 14.23 16.12C13.89 15.73 13.69 15.24 13.65 14.72C13.61 14.25 13.24 13.88 12.77 13.84C12.25 13.8 11.76 13.6 11.37 13.26ZM11.73 15.2C12.04 14.91 12.51 14.93 12.79 15.23C13.08 15.54 13.06 16.01 12.76 16.29L10.61 18.29C10.33 18.56 9.88 18.56 9.59 18.29L8.73 17.49C8.43 17.21 8.41 16.74 8.7 16.43C8.98 16.13 9.45 16.11 9.76 16.4L10.1 16.72L11.73 15.2Z" fill="#474747" fill-opacity="1.000000" fill-rule="evenodd"/>
</svg>
