<svg width="17.500000" height="21.028320" viewBox="0 0 17.5 21.0283" fill="none" xmlns="http://www.w3.org/2000/svg" xmlns:xlink="http://www.w3.org/1999/xlink">
	<desc>
			Created with Pixso.
	</desc>
	<defs/>
	<path id="Vector" d="M7.69 0L9.8 0C10.7 0 11.44 0 12.04 0.08C12.67 0.16 13.23 0.34 13.69 0.8C14.15 1.26 14.33 1.82 14.41 2.45C14.48 2.93 14.49 3.5 14.49 4.17C15.24 4.31 15.88 4.57 16.4 5.09C17 5.7 17.26 6.45 17.38 7.35C17.5 8.22 17.5 9.32 17.5 10.69L17.5 11.84C17.5 13.01 17.5 13.94 17.42 14.71C17.33 15.49 17.16 16.16 16.79 16.77C16.41 17.38 15.89 17.83 15.22 18.26C14.58 18.67 13.74 19.09 12.69 19.61L12.66 19.63C12.6 19.66 12.54 19.68 12.49 19.71C10.9 20.51 9.87 21.02 8.75 21.02C7.62 21.02 6.59 20.51 5 19.71C4.95 19.68 4.89 19.66 4.83 19.63L4.8 19.61C3.75 19.09 2.91 18.67 2.27 18.26C1.6 17.83 1.08 17.38 0.7 16.77C0.33 16.16 0.16 15.49 0.07 14.71C0 13.94 0 13.01 0 11.84L0 10.69C0 9.32 0 8.22 0.11 7.35C0.23 6.45 0.49 5.7 1.09 5.09C1.61 4.57 2.25 4.31 3 4.17C3 3.5 3.01 2.93 3.08 2.45C3.16 1.82 3.34 1.26 3.8 0.8C4.26 0.34 4.82 0.16 5.45 0.08C6.05 0 6.79 0 7.69 0ZM4.5 4.02C5.14 4 5.86 4 6.69 4L10.8 4C11.63 4 12.35 4 12.99 4.02C12.99 3.44 12.98 3 12.93 2.65C12.87 2.19 12.76 1.99 12.63 1.86C12.5 1.73 12.3 1.62 11.84 1.56C11.36 1.5 10.71 1.5 9.75 1.5L7.75 1.5C6.78 1.5 6.13 1.5 5.65 1.56C5.19 1.62 4.99 1.73 4.86 1.86C4.73 1.99 4.62 2.19 4.56 2.65C4.51 3 4.5 3.44 4.5 4.02ZM3.55 5.6C2.82 5.7 2.43 5.88 2.15 6.15C1.88 6.43 1.7 6.82 1.6 7.55C1.5 8.31 1.5 9.31 1.5 10.75L1.5 11.8C1.5 13.02 1.5 13.88 1.57 14.55C1.63 15.21 1.76 15.63 1.98 15.98C2.2 16.33 2.52 16.64 3.08 16.99C3.65 17.36 4.41 17.74 5.5 18.29C7.33 19.2 8.02 19.52 8.75 19.52C9.47 19.52 10.16 19.2 11.99 18.29C13.08 17.74 13.84 17.36 14.41 16.99C14.97 16.64 15.29 16.33 15.51 15.98C15.73 15.63 15.86 15.21 15.92 14.55C15.99 13.88 16 13.02 16 11.8L16 10.75C16 9.31 15.99 8.31 15.89 7.55C15.79 6.82 15.61 6.43 15.34 6.15C15.06 5.88 14.67 5.7 13.94 5.6C13.18 5.5 12.18 5.5 10.75 5.5L6.75 5.5C5.31 5.5 4.31 5.5 3.55 5.6ZM8.75 9.78C8.69 9.88 8.62 10 8.55 10.13L8.45 10.31C8.44 10.32 8.43 10.33 8.43 10.35C8.35 10.49 8.22 10.73 8 10.9C7.78 11.06 7.51 11.12 7.36 11.16C7.34 11.16 7.33 11.16 7.31 11.16L7.12 11.21C6.95 11.25 6.8 11.28 6.68 11.31C6.76 11.41 6.87 11.53 7 11.69L7.13 11.84C7.14 11.85 7.15 11.86 7.16 11.87C7.27 12 7.44 12.2 7.52 12.46C7.6 12.71 7.57 12.98 7.56 13.14C7.55 13.16 7.55 13.18 7.55 13.19L7.53 13.39C7.51 13.58 7.5 13.73 7.49 13.85C7.59 13.81 7.71 13.75 7.85 13.69L8.03 13.61C8.04 13.6 8.06 13.59 8.07 13.59C8.22 13.52 8.47 13.4 8.75 13.4C9.02 13.4 9.27 13.52 9.42 13.59C9.43 13.59 9.45 13.6 9.46 13.61L9.64 13.69C9.78 13.75 9.9 13.81 10 13.85C9.99 13.73 9.98 13.58 9.96 13.39L9.94 13.19C9.94 13.18 9.94 13.16 9.93 13.14C9.92 12.98 9.89 12.71 9.97 12.46C10.05 12.2 10.22 12 10.33 11.87C10.34 11.86 10.35 11.85 10.36 11.84L10.49 11.69C10.62 11.53 10.73 11.41 10.81 11.31C10.69 11.28 10.54 11.25 10.37 11.21L10.18 11.16C10.16 11.16 10.15 11.16 10.13 11.16C9.98 11.12 9.71 11.06 9.49 10.9C9.27 10.73 9.14 10.49 9.06 10.35C9.06 10.33 9.05 10.32 9.04 10.31L8.94 10.13C8.87 10 8.8 9.88 8.75 9.78ZM7.76 8.54C7.93 8.32 8.24 8 8.75 8C9.25 8 9.56 8.32 9.73 8.54C9.9 8.76 10.06 9.06 10.23 9.36C10.24 9.37 10.25 9.39 10.25 9.4L10.35 9.58C10.37 9.62 10.39 9.65 10.41 9.68C10.44 9.69 10.47 9.69 10.51 9.7L10.7 9.75C10.71 9.75 10.73 9.75 10.75 9.76C11.07 9.83 11.4 9.9 11.65 10C11.93 10.11 12.3 10.32 12.44 10.79C12.59 11.24 12.41 11.63 12.25 11.88C12.11 12.11 11.89 12.36 11.66 12.63C11.65 12.64 11.64 12.65 11.63 12.66L11.5 12.81C11.47 12.85 11.44 12.88 11.42 12.91C11.42 12.95 11.43 12.99 11.43 13.05L11.45 13.25C11.45 13.26 11.45 13.28 11.46 13.3C11.49 13.65 11.52 13.99 11.51 14.26C11.5 14.54 11.43 14.98 11.04 15.27C10.64 15.57 10.2 15.51 9.92 15.43C9.66 15.35 9.36 15.21 9.05 15.07C9.04 15.07 9.02 15.06 9.01 15.05L8.83 14.97C8.8 14.95 8.77 14.94 8.75 14.93C8.72 14.94 8.69 14.95 8.66 14.97L8.48 15.05C8.47 15.06 8.45 15.07 8.44 15.07C8.13 15.21 7.83 15.35 7.57 15.43C7.29 15.51 6.85 15.57 6.45 15.27C6.06 14.98 5.99 14.54 5.98 14.26C5.97 13.99 6 13.65 6.04 13.3C6.04 13.28 6.04 13.26 6.04 13.25L6.06 13.05C6.06 12.99 6.07 12.95 6.07 12.91C6.05 12.88 6.02 12.85 5.99 12.81L5.86 12.66C5.85 12.65 5.84 12.64 5.83 12.63C5.6 12.36 5.38 12.11 5.24 11.88C5.08 11.63 4.9 11.24 5.05 10.79C5.19 10.32 5.56 10.11 5.84 10C6.09 9.9 6.42 9.83 6.74 9.76C6.76 9.75 6.78 9.75 6.79 9.75L6.98 9.7C7.02 9.69 7.05 9.69 7.08 9.68C7.1 9.65 7.12 9.62 7.14 9.58L7.24 9.4C7.24 9.39 7.25 9.37 7.26 9.36C7.43 9.06 7.59 8.76 7.76 8.54Z" fill="#5E5E5E" fill-opacity="1.000000" fill-rule="evenodd"/>
</svg>
