<svg width="21.500000" height="21.500000" viewBox="0 0 21.5 21.5" fill="none" xmlns="http://www.w3.org/2000/svg" xmlns:xlink="http://www.w3.org/1999/xlink">
	<desc>
			Created with Pixso.
	</desc>
	<defs/>
	<path id="Vector" d="M0 10.75C0 4.81 4.81 0 10.75 0C16.68 0 21.5 4.81 21.5 10.75C21.5 16.68 16.68 21.5 10.75 21.5C4.81 21.5 0 16.68 0 10.75ZM10.75 1.5C5.64 1.5 1.5 5.64 1.5 10.75C1.5 15.85 5.64 20 10.75 20C15.85 20 20 15.85 20 10.75C20 5.64 15.85 1.5 10.75 1.5ZM14.78 7.71C15.07 8.01 15.07 8.48 14.78 8.78L9.78 13.78C9.48 14.07 9.01 14.07 8.71 13.78L6.71 11.78C6.42 11.48 6.42 11.01 6.71 10.71C7.01 10.42 7.48 10.42 7.78 10.71L9.25 12.18L13.71 7.71C14.01 7.42 14.48 7.42 14.78 7.71Z" fill="#474747" fill-opacity="1.000000" fill-rule="evenodd"/>
</svg>
